<svg width="115" height="26" viewBox="0 0 115 26" fill="none" xmlns="http://www.w3.org/2000/svg">
<g clip-path="url(#clip0_14356_718)">
<path d="M8.31954 1.84442C8.85503 1.84442 9.33687 1.96527 9.76524 2.20697C10.2089 2.42853 10.6143 2.6803 10.9815 2.96228C11.3639 3.24426 11.7234 3.5061 12.0599 3.74781C12.3965 3.96936 12.7407 4.08014 13.0925 4.08014C13.3679 4.06 13.6815 4.00964 14.0334 3.92907C14.3393 3.84851 14.6912 3.72766 15.0889 3.56653C15.502 3.38525 15.961 3.12341 16.4658 2.78101C15.961 3.42554 15.5479 3.96936 15.2267 4.41247C14.9207 4.83545 14.6835 5.18793 14.5153 5.46991C14.3164 5.79217 14.1711 6.04394 14.0793 6.22522C13.9875 6.44678 13.8498 6.77911 13.6663 7.22222C13.4979 7.62506 13.2685 8.16889 12.9778 8.8537C12.6872 9.51837 12.32 10.3946 11.8764 11.4822C11.8764 10.0924 11.7693 9.01483 11.5551 8.24945C11.3562 7.48407 11.1344 6.89996 10.8896 6.49713C10.599 6.03387 10.2701 5.74182 9.9029 5.62097C9.56636 5.56055 9.22982 5.64111 8.89322 5.86267C8.55667 6.06409 8.22013 6.36621 7.88359 6.76904C7.56233 7.17187 7.2487 7.65527 6.94275 8.21924C6.65209 8.76306 6.38437 9.33709 6.1396 9.94134C5.91013 10.5456 5.71891 11.1599 5.56592 11.7843C5.41295 12.3886 5.31351 12.9525 5.26761 13.4762C5.22172 13.9395 5.21407 14.4833 5.24467 15.1076C5.27526 15.7119 5.3441 16.3363 5.45119 16.9808C5.55828 17.6052 5.69596 18.2195 5.86423 18.8237C6.03252 19.4281 6.23904 19.9719 6.48381 20.4553C6.74387 20.9185 7.03453 21.3012 7.35581 21.6033C7.67707 21.8853 8.04423 22.0162 8.45727 21.9961C8.91619 21.9558 9.36748 21.7745 9.81113 21.4522C10.1936 21.1904 10.5837 20.7876 10.9815 20.2438C11.3791 19.6798 11.7234 18.8843 12.014 17.857L15.4102 18.6728C14.4311 20.2438 13.475 21.4221 12.5418 22.2075C11.6239 22.9931 10.7978 23.547 10.0635 23.8692C9.20685 24.2318 8.39604 24.403 7.63119 24.3829C6.66738 24.2418 5.7648 23.8592 4.92341 23.2348C4.08202 22.6104 3.35536 21.8551 2.74344 20.9688C2.14681 20.0625 1.68023 19.0755 1.34367 18.008C1.00711 16.9405 0.861781 15.8932 0.907675 14.866C0.938271 14.1811 1.04536 13.3855 1.22893 12.4792C1.41251 11.5527 1.65728 10.606 1.96324 9.63918C2.2845 8.67242 2.66695 7.72577 3.11059 6.79926C3.55423 5.87274 4.04377 5.04693 4.57921 4.32183C5.11464 3.5766 5.69596 2.98242 6.32318 2.5393C6.96569 2.07605 7.63119 1.84442 8.31954 1.84442ZM15.966 10.6665L20.1883 10.7269C19.9435 11.9555 19.76 13.0029 19.6376 13.8689C19.5305 14.735 19.4617 15.4602 19.4311 16.0443C19.3698 16.7089 19.3546 17.2729 19.3852 17.7361C19.4311 18.1591 19.5076 18.6123 19.6146 19.0957C19.7064 19.4985 19.8441 19.9618 20.0276 20.4854C20.2112 21.0091 20.456 21.5328 20.7619 22.0565C20.5784 21.9759 20.3795 21.9155 20.1654 21.8752C19.9512 21.8349 19.7523 21.8047 19.5687 21.7846C19.3546 21.7644 19.1404 21.7644 18.9262 21.7846C18.712 21.8047 18.4749 21.8349 18.2148 21.8752C18.0007 21.9155 17.7406 21.9659 17.4347 22.0263C17.1287 22.0867 16.8074 22.1673 16.4709 22.268C16.7004 21.3617 16.8763 20.5761 16.9986 19.9115C17.1364 19.2467 17.2358 18.6929 17.2969 18.2498C17.3582 17.7261 17.3964 17.3031 17.4117 16.9808C17.4117 16.578 17.4117 16.1248 17.4117 15.6213C17.4117 15.0976 17.4117 14.5941 17.4117 14.1107C17.4117 13.6273 17.404 13.2043 17.3888 12.8417C17.3734 12.459 17.3429 12.2173 17.2969 12.1167L17.0675 11.8145C16.9757 11.7138 16.838 11.5728 16.6545 11.3915C16.4862 11.1901 16.2567 10.9484 15.966 10.6665ZM17.5953 6.01373C17.9166 5.79217 18.2378 5.73175 18.559 5.83246C18.8956 5.93316 19.1557 6.12451 19.3393 6.40649C19.5228 6.68848 19.5841 7.02081 19.5228 7.4035C19.4769 7.78619 19.2322 8.15881 18.7885 8.52136C18.3449 8.86377 17.9548 8.98461 17.6182 8.88391C17.2817 8.7832 17.0445 8.57172 16.9069 8.24945C16.7692 7.92719 16.7462 7.55456 16.838 7.13159C16.9298 6.68848 17.1823 6.31586 17.5953 6.01373ZM22.6258 20.848C22.7329 20.1834 22.8094 19.5992 22.8553 19.0957C22.9164 18.572 22.9623 18.139 22.9929 17.7965C23.0235 17.3938 23.0388 17.0513 23.0388 16.7693C23.0235 16.427 23.0082 16.0241 22.9929 15.5609C22.9929 15.0775 22.9777 14.6041 22.947 14.1408C22.9318 13.6574 22.9088 13.2345 22.8782 12.872C22.8476 12.4892 22.8094 12.2173 22.7634 12.0562C22.7023 11.895 22.6181 11.7239 22.511 11.5426C22.2969 11.2001 21.9832 10.8678 21.5702 10.5456C21.9221 10.4448 22.2204 10.3643 22.4651 10.3039C22.7252 10.2233 22.9394 10.1528 23.1077 10.0924C23.2912 10.0118 23.4519 9.94134 23.5896 9.88092C23.712 9.82051 23.8573 9.7601 24.0255 9.69968C24.1632 9.65938 24.3315 9.60902 24.5304 9.54859C24.7293 9.48815 24.9587 9.41766 25.2188 9.33709L25.15 12.0864C25.6395 11.3211 26.1367 10.747 26.6415 10.3643C27.1464 9.98164 27.6206 9.70974 28.0642 9.54859C28.5691 9.34717 29.0663 9.24646 29.5558 9.24646C30.1677 9.28674 30.7337 9.41766 31.2539 9.63918C31.7893 9.86081 32.2482 10.1226 32.6307 10.4247C33.0284 10.7067 33.3497 11.0089 33.5945 11.3311C33.8392 11.6534 33.9846 11.9353 34.0305 12.1771C34.214 12.9626 34.2599 13.6877 34.1681 14.3523C34.0764 14.9969 33.954 15.6313 33.801 16.2558C33.6633 16.86 33.5409 17.4642 33.4338 18.0684C33.3421 18.6728 33.3803 19.3273 33.5486 20.0323C33.6097 20.2135 33.671 20.3949 33.7321 20.5761C33.7934 20.7372 33.8699 20.8984 33.9616 21.0595C34.0534 21.2206 34.1605 21.3516 34.2829 21.4522C34.1146 21.4321 33.9464 21.4221 33.778 21.4221C33.6097 21.4019 33.4568 21.3818 33.3191 21.3617C33.1508 21.3415 32.9978 21.3214 32.8602 21.3012C32.7072 21.281 32.5007 21.271 32.2406 21.271C31.797 21.271 31.1085 21.3012 30.1753 21.3617C30.3131 20.9387 30.4201 20.5862 30.4966 20.3042C30.5884 20.002 30.6649 19.7604 30.7261 19.5791C30.7873 19.3575 30.8332 19.1863 30.8638 19.0655C31.0474 18.4814 31.1544 17.8167 31.185 17.0715C31.2309 16.3262 31.1927 15.5709 31.0703 14.8056C31.0244 14.5437 30.9479 14.2315 30.8408 13.8689C30.7337 13.5064 30.5884 13.1539 30.4048 12.8115C30.2366 12.4691 30.0301 12.1771 29.7853 11.9353C29.5558 11.6937 29.288 11.5527 28.9821 11.5124C28.6761 11.4721 28.3319 11.5728 27.9495 11.8145C27.5824 12.0562 27.1846 12.4994 26.7562 13.1439C26.435 13.6877 26.1826 14.3523 25.999 15.1379C25.8307 15.8025 25.716 16.6384 25.6548 17.6455C25.5936 18.6325 25.6854 19.7905 25.9301 21.1199C25.716 21.0796 25.5171 21.0595 25.3336 21.0595C25.15 21.0394 24.997 21.0192 24.8746 20.9991C24.7216 20.979 24.5839 20.9588 24.4615 20.9387C24.3239 20.9387 24.1709 20.9286 24.0026 20.9084C23.8496 20.9084 23.6584 20.9084 23.4289 20.9084C23.1994 20.8883 22.9318 20.8681 22.6258 20.848ZM41.9752 19.3071C42.4036 19.3071 42.8014 19.2467 43.1685 19.1259C43.4744 19.0252 43.7651 18.8641 44.0405 18.6425C44.3311 18.4009 44.5224 18.0483 44.6141 17.585C44.9201 17.6657 45.1802 17.7361 45.3943 17.7965C45.6085 17.8368 45.7921 17.8771 45.9451 17.9175C46.1134 17.9779 46.2587 18.0181 46.381 18.0383C46.5034 18.0786 46.6488 18.1188 46.8171 18.1591C46.9701 18.1994 47.1536 18.2498 47.3678 18.3102C47.5973 18.3505 47.865 18.4109 48.1709 18.4914C47.9415 18.4512 47.7044 18.4814 47.4596 18.5821C47.2301 18.6828 47.0083 18.7936 46.7942 18.9144C46.5494 19.0554 46.3199 19.2266 46.1057 19.4281C45.968 19.5489 45.8074 19.7301 45.6238 19.9719C45.4556 20.2135 45.2108 20.4452 44.8895 20.6668C44.5683 20.8883 44.1399 21.0796 43.6045 21.2407C43.0844 21.3818 42.4112 21.4321 41.5852 21.3918C40.5908 21.3516 39.757 21.1199 39.0839 20.6969C38.4108 20.2538 37.8677 19.7201 37.4547 19.0957C37.0416 18.4512 36.7433 17.7563 36.5598 17.0111C36.3762 16.2658 36.2767 15.5709 36.2614 14.9264C36.2461 14.2819 36.3915 13.6071 36.6974 12.9021C37.0034 12.1972 37.4317 11.5527 37.9825 10.9685C38.5485 10.3844 39.2292 9.91109 40.0248 9.54859C40.8202 9.16589 41.6922 8.97455 42.6407 8.97455C43.1914 8.97455 43.6963 9.06519 44.1552 9.24646C44.6294 9.40759 45.0578 9.62913 45.4402 9.91109C45.838 10.1931 46.1822 10.5154 46.4729 10.8779C46.7635 11.2203 47.0083 11.5728 47.2072 11.9353C47.4061 12.318 47.5743 12.7209 47.712 13.1439C47.8344 13.5064 47.9339 13.9193 48.0103 14.3826C48.0868 14.8458 48.1098 15.3191 48.0792 15.8025C46.9165 15.8428 45.9757 15.8731 45.2567 15.8932C44.553 15.9133 44.0022 15.9234 43.6045 15.9234H42.5719H41.7917C41.5163 15.9234 41.1568 15.9335 40.7131 15.9536C40.2695 15.9737 39.7264 16.004 39.0839 16.0443C39.1604 16.8499 39.3516 17.4743 39.6576 17.9175C39.9788 18.3404 40.3154 18.6626 40.6672 18.8843C41.065 19.1259 41.501 19.2669 41.9752 19.3071ZM39.91 13.8689C40.3996 13.9092 40.805 13.9395 41.1262 13.9596C41.4628 13.9797 41.7381 13.9999 41.9523 14.02C42.1817 14.0401 42.3653 14.0503 42.503 14.0503H43.0767C43.4592 14.0503 44.1705 14.02 45.2108 13.9596C45.1649 13.0733 45.0195 12.3986 44.7748 11.9353C44.5453 11.4721 44.3005 11.1297 44.0405 10.9081C43.7345 10.6665 43.3979 10.5255 43.0308 10.4851C42.0364 10.5053 41.2945 10.7773 40.805 11.3009C40.3307 11.8246 40.0324 12.6806 39.91 13.8689ZM57.5843 1.39124C58.4104 1.43152 59.2442 1.63293 60.0855 1.99548C60.9422 2.33789 61.7301 2.90185 62.4491 3.68738C63.1681 4.45276 63.78 5.44976 64.2849 6.6784C64.7897 7.8869 65.1033 9.36731 65.2257 11.1196C65.3328 12.5497 65.1951 13.9697 64.8126 15.3795C64.4455 16.7693 63.933 18.0483 63.2752 19.2166C62.6174 20.3848 61.8601 21.3818 61.0035 22.2075C60.1468 23.0132 59.2901 23.547 58.4334 23.8088C57.9132 23.9699 57.3396 23.9901 56.7124 23.8692C56.1004 23.7283 55.4732 23.4765 54.8307 23.1139C54.2035 22.7312 53.5839 22.2478 52.972 21.6637C52.3753 21.0796 51.8323 20.415 51.3427 19.6697C50.8532 18.9044 50.4402 18.0786 50.1036 17.1923C49.7824 16.3061 49.5835 15.3795 49.507 14.4128C49.4305 13.6071 49.4228 12.7209 49.4841 11.7541C49.5605 10.7671 49.7059 9.79026 49.92 8.82348C50.1495 7.83655 50.4631 6.88989 50.8608 5.98352C51.2739 5.057 51.794 4.25134 52.4213 3.56653C53.0485 2.86157 53.7828 2.31775 54.6242 1.93506C55.4808 1.53223 56.4676 1.35095 57.5843 1.39124ZM53.4768 13.6273C53.2626 15.7824 53.4156 17.5146 53.9358 18.8237C54.4712 20.133 55.2743 20.9286 56.3452 21.2106C56.8653 21.3516 57.3625 21.2106 57.8367 20.7876C58.3263 20.3445 58.7699 19.71 59.1677 18.8843C59.5655 18.0584 59.9096 17.0916 60.2003 15.9839C60.4909 14.876 60.7052 13.7179 60.8428 12.5094C60.9805 11.3009 60.9882 10.2132 60.8657 9.24646C60.7587 8.25952 60.5674 7.42364 60.2921 6.73883C60.0167 6.03387 59.6801 5.49005 59.2824 5.10736C58.8999 4.72467 58.5022 4.51318 58.0891 4.4729C57.3702 4.41247 56.7429 4.66424 56.2075 5.22821C55.6721 5.77203 55.2208 6.48706 54.8536 7.37329C54.4865 8.25952 54.1882 9.25653 53.9587 10.3643C53.7445 11.4721 53.5839 12.5598 53.4768 13.6273ZM67.1127 20.848C67.2198 20.1834 67.2962 19.5992 67.3419 19.0957C67.4032 18.572 67.4489 18.139 67.4796 17.7965C67.5103 17.3938 67.5253 17.0513 67.5253 16.7693C67.5102 16.427 67.4946 16.0241 67.4796 15.5609C67.4796 15.0775 67.4646 14.6041 67.4339 14.1408C67.4182 13.6574 67.3954 13.2345 67.3647 12.872C67.334 12.4892 67.2962 12.2173 67.2505 12.0562C67.1891 11.895 67.1049 11.7239 66.9979 11.5426C66.7838 11.2001 66.4698 10.8678 66.0566 10.5456C66.4085 10.4448 66.7068 10.3643 66.9515 10.3039C67.212 10.2233 67.426 10.1528 67.5944 10.0924C67.7779 10.0118 67.9384 9.94134 68.0762 9.88092C68.1989 9.82051 68.3438 9.7601 68.5122 9.69968C68.6499 9.65938 68.8183 9.60902 69.0174 9.54859C69.2158 9.48815 69.4455 9.41766 69.7053 9.33709L69.6368 12.0864C70.1263 11.3211 70.623 10.747 71.1283 10.3643C71.6328 9.98164 72.1073 9.70974 72.5512 9.54859C73.0557 9.34717 73.5531 9.24646 74.0426 9.24646C74.6542 9.28674 75.2201 9.41766 75.7403 9.63918C76.2762 9.86081 76.7351 10.1226 77.1176 10.4247C77.5151 10.7067 77.8362 11.0089 78.081 11.3311C78.3258 11.6534 78.4713 11.9353 78.517 12.1771C78.7004 12.9626 78.7468 13.6877 78.6547 14.3523C78.5633 14.9969 78.4406 15.6313 78.2879 16.2558C78.1502 16.86 78.0275 17.4642 77.9204 18.0684C77.829 18.6728 77.8669 19.3273 78.0353 20.0323C78.0966 20.2135 78.1573 20.3949 78.2187 20.5761C78.2801 20.7372 78.3564 20.8984 78.4485 21.0595C78.5398 21.2206 78.6469 21.3516 78.7696 21.4522C78.6012 21.4321 78.4328 21.4221 78.2644 21.4221C78.0966 21.4019 77.9433 21.3818 77.8055 21.3617C77.6378 21.3415 77.4844 21.3214 77.3467 21.3012C77.1939 21.281 76.987 21.271 76.7272 21.271C76.2834 21.271 75.5954 21.3012 74.6621 21.3617C74.7998 20.9387 74.9068 20.5862 74.9832 20.3042C75.0752 20.002 75.1516 19.7604 75.213 19.5791C75.2737 19.3575 75.32 19.1863 75.3507 19.0655C75.5341 18.4814 75.6411 17.8167 75.6718 17.0715C75.7175 16.3262 75.6796 15.5709 75.5569 14.8056C75.5112 14.5437 75.4349 14.2315 75.3272 13.8689C75.2201 13.5064 75.0752 13.1539 74.8918 12.8115C74.7234 12.4691 74.5165 12.1771 74.2717 11.9353C74.0426 11.6937 73.775 11.5527 73.4689 11.5124C73.1628 11.4721 72.8188 11.5728 72.4363 11.8145C72.0688 12.0562 71.6713 12.4994 71.2431 13.1439C70.9213 13.6877 70.6694 14.3523 70.486 15.1379C70.3176 15.8025 70.2027 16.6384 70.1413 17.6455C70.08 18.6325 70.172 19.7905 70.4168 21.1199C70.2027 21.0796 70.0036 21.0595 69.8202 21.0595C69.6368 21.0394 69.4834 21.0192 69.3614 20.9991C69.2086 20.979 69.0709 20.9588 68.9482 20.9387C68.8105 20.9387 68.6577 20.9286 68.4893 20.9084C68.3366 20.9084 68.1453 20.9084 67.9156 20.9084C67.6858 20.8883 67.4182 20.8681 67.1127 20.848ZM86.4619 19.3071C86.89 19.3071 87.2882 19.2467 87.655 19.1259C87.9611 19.0252 88.2516 18.8641 88.5271 18.6425C88.8175 18.4009 89.0088 18.0483 89.1008 17.585C89.4069 17.6657 89.6667 17.7361 89.8808 17.7965C90.0955 17.8368 90.2789 17.8771 90.4317 17.9175C90.6001 17.9779 90.7456 18.0181 90.8677 18.0383C90.9904 18.0786 91.1353 18.1188 91.3037 18.1591C91.4564 18.1994 91.6405 18.2498 91.8546 18.3102C92.0837 18.3505 92.352 18.4109 92.6574 18.4914C92.4283 18.4512 92.1907 18.4814 91.946 18.5821C91.7169 18.6828 91.4949 18.7936 91.2809 18.9144C91.0361 19.0554 90.8063 19.2266 90.5922 19.4281C90.4545 19.5489 90.294 19.7301 90.1105 19.9719C89.9421 20.2135 89.6974 20.4452 89.3762 20.6668C89.0551 20.8883 88.6269 21.0796 88.091 21.2407C87.5708 21.3818 86.8979 21.4321 86.0715 21.3918C85.0774 21.3516 84.2439 21.1199 83.5703 20.6969C82.8974 20.2538 82.3543 19.7201 81.9411 19.0957C81.528 18.4512 81.2297 17.7563 81.0463 17.0111C80.8629 16.2658 80.7636 15.5709 80.748 14.9264C80.733 14.2819 80.8779 13.6071 81.184 12.9021C81.4901 12.1972 81.9183 11.5527 82.4692 10.9685C83.0351 10.3844 83.7159 9.91109 84.5115 9.54859C85.3072 9.16589 86.1792 8.97455 87.1276 8.97455C87.6779 8.97455 88.1831 9.06519 88.6419 9.24646C89.1164 9.40759 89.5446 9.62913 89.9271 9.91109C90.3246 10.1931 90.6686 10.5154 90.9597 10.8779C91.2502 11.2203 91.4949 11.5728 91.694 11.9353C91.8924 12.318 92.0609 12.7209 92.1986 13.1439C92.3213 13.5064 92.4205 13.9193 92.4969 14.3826C92.5732 14.8458 92.5967 15.3191 92.5661 15.8025C91.4029 15.8428 90.4623 15.8731 89.7431 15.8932C89.0394 15.9133 88.4892 15.9234 88.091 15.9234H87.0584H86.2784C86.003 15.9234 85.6433 15.9335 85.2002 15.9536C84.7563 15.9737 84.2133 16.004 83.5703 16.0443C83.6473 16.8499 83.8386 17.4743 84.1441 17.9175C84.4652 18.3404 84.802 18.6626 85.1538 18.8843C85.552 19.1259 85.988 19.2669 86.4619 19.3071ZM84.3967 13.8689C84.8862 13.9092 85.2915 13.9395 85.6127 13.9596C85.9495 13.9797 86.2249 13.9999 86.439 14.02C86.6688 14.0401 86.8522 14.0503 86.9899 14.0503H87.5636C87.9461 14.0503 88.6569 14.02 89.6974 13.9596C89.6517 13.0733 89.5061 12.3986 89.2614 11.9353C89.0322 11.4721 88.7875 11.1297 88.5271 10.9081C88.2209 10.6665 87.8848 10.5255 87.5173 10.4851C86.5232 10.5053 85.7811 10.7773 85.2915 11.3009C84.8177 11.8246 84.5194 12.6806 84.3967 13.8689ZM94.4067 2.87164C94.6972 3.15363 94.9883 3.36511 95.2787 3.5061C95.5849 3.62695 95.8603 3.70752 96.1051 3.74781C96.3799 3.80823 96.6553 3.8183 96.9308 3.77801C97.1912 3.73773 97.4588 3.61688 97.7343 3.41547C98.0091 3.21405 98.3308 3.00257 98.6977 2.78101C99.0652 2.55945 99.4933 2.36811 99.9829 2.20697C100.487 2.0257 101.092 1.93506 101.795 1.93506C102.102 1.93506 102.423 2.01562 102.76 2.17676C103.111 2.33789 103.448 2.54937 103.769 2.81122C104.09 3.05292 104.381 3.32483 104.641 3.62695C104.917 3.92907 105.123 4.2312 105.261 4.53333C105.413 4.83545 105.521 5.32892 105.582 6.01373C105.643 6.6784 105.666 7.4035 105.651 8.18902C105.635 8.97455 105.582 9.75004 105.49 10.5154C105.413 11.2808 105.299 11.9052 105.146 12.3886C104.962 12.8115 104.611 13.3554 104.09 14.02C103.647 14.584 102.981 15.3091 102.094 16.1954C101.207 17.0815 100.014 18.139 98.5143 19.3676C99.4013 19.3475 100.143 19.3173 100.74 19.277C101.352 19.2166 101.849 19.1562 102.231 19.0957C102.675 19.0151 103.027 18.9345 103.287 18.854C103.517 18.7332 103.761 18.562 104.021 18.3404C104.236 18.139 104.465 17.8771 104.71 17.5549C104.97 17.2326 105.222 16.8096 105.467 16.2859C105.513 17.3736 105.559 18.2296 105.605 18.854C105.635 19.2166 105.658 19.5288 105.674 19.7905C105.689 20.0323 105.705 20.3142 105.72 20.6365C105.735 20.9185 105.742 21.2407 105.742 21.6033C105.758 21.9659 105.781 22.3486 105.812 22.7514C105.047 22.4896 104.35 22.2881 103.723 22.1471C103.096 21.986 102.56 21.8752 102.117 21.8148C101.597 21.7343 101.13 21.694 100.717 21.694C100.289 21.7141 99.8145 21.7644 99.2943 21.8451C98.8354 21.9256 98.2845 22.0464 97.6422 22.2075C97.015 22.3486 96.3035 22.5601 95.5078 22.842C95.4471 22.6205 95.3936 22.3989 95.3473 22.1774C95.3016 21.9356 95.2631 21.704 95.2331 21.4825C95.1867 21.2407 95.1488 20.9991 95.1182 20.7573C95.0875 20.5157 95.0568 20.2841 95.0261 20.0625C94.9955 19.8611 94.9726 19.6496 94.9576 19.4281C94.9419 19.2065 94.9269 18.995 94.9113 18.7936C96.1351 17.7664 97.1298 16.8399 97.8948 16.014C98.6598 15.1681 99.2636 14.4531 99.7074 13.8689C100.213 13.1841 100.594 12.5598 100.855 11.9958C101.115 11.311 101.329 10.5556 101.497 9.72985C101.666 8.90406 101.719 8.13867 101.658 7.43372C101.612 6.72875 101.429 6.15473 101.107 5.71161C100.786 5.24835 100.273 5.04693 99.5697 5.10736C99.1108 5.14764 98.6748 5.35913 98.2617 5.74182C97.8642 6.12451 97.4967 6.58777 97.1605 7.13159C96.8237 7.67542 96.5254 8.25952 96.2657 8.88391C96.0052 9.48816 95.7833 10.0622 95.5999 10.606C95.4315 11.1499 95.2938 11.603 95.1867 11.9656C95.0953 12.3282 95.049 12.5195 95.049 12.5396C95.034 12.5799 95.0111 12.4288 94.9804 12.0864C94.9648 11.744 94.9419 11.3211 94.9113 10.8175C94.8962 10.2939 94.8734 9.75004 94.8427 9.18603C94.812 8.62207 94.7814 8.14874 94.7507 7.76605C94.7357 7.46392 94.7128 7.07116 94.6822 6.58777C94.6365 5.80225 94.5444 4.56353 94.4067 2.87164ZM107.996 5.43969C108.532 5.21814 108.968 5.03686 109.304 4.89587C109.641 4.73474 109.917 4.60382 110.131 4.50311C110.375 4.38227 110.559 4.27148 110.682 4.17077L111.232 3.80823C111.446 3.66724 111.721 3.48596 112.058 3.26441C112.395 3.0227 112.831 2.72058 113.366 2.35803C113.243 3.12341 113.152 3.84851 113.091 4.53333C113.045 5.198 113.007 5.79217 112.976 6.31586C112.93 6.9201 112.907 7.474 112.907 7.97754C112.892 8.40051 112.869 8.96448 112.838 9.66943C112.823 10.3744 112.8 11.1397 112.77 11.9656C112.739 12.7914 112.708 13.6373 112.678 14.5034C112.647 15.3695 112.624 16.1852 112.609 16.9507C112.609 17.6958 112.616 18.3404 112.632 18.8843C112.663 19.4281 112.716 19.8007 112.792 20.002C112.869 20.2438 112.968 20.4754 113.091 20.6969C113.198 20.8984 113.32 21.13 113.458 21.3918C113.611 21.6336 113.794 21.8752 114.008 22.117C113.657 22.2177 113.328 22.3083 113.022 22.3889C112.716 22.4493 112.448 22.4996 112.219 22.5399C111.943 22.6004 111.698 22.6507 111.484 22.6909C111.255 22.7111 110.941 22.7615 110.544 22.842C110.207 22.9024 109.779 22.983 109.259 23.0838C108.738 23.1643 108.096 23.2549 107.331 23.3557C107.729 23.0334 108.043 22.7212 108.272 22.419C108.516 22.117 108.7 21.8551 108.823 21.6336C108.96 21.3717 109.045 21.1199 109.075 20.8783C109.09 20.7171 109.113 20.2841 109.144 19.5791C109.189 18.854 109.228 18.008 109.259 17.0412C109.304 16.0543 109.343 15.0069 109.373 13.8992C109.419 12.7713 109.45 11.7239 109.465 10.7571C109.481 9.79026 109.488 8.96448 109.488 8.27966C109.488 7.59485 109.465 7.18195 109.419 7.04096C109.358 6.89996 109.266 6.73883 109.144 6.55756C109.037 6.39643 108.891 6.22522 108.708 6.04394C108.539 5.86267 108.302 5.66126 107.996 5.43969Z" fill="#394BA7"/>
</g>
<defs>
<clipPath id="clip0_14356_718">
<rect width="113.573" height="24.0625" fill="white" transform="translate(0.713867 0.96875)"/>
</clipPath>
</defs>
</svg>
