<svg
                className="w-full md:w-1/5"
                width="55"
                height="54"
                viewBox="0 0 55 54"
                fill="none"
                xmlns="http://www.w3.org/2000/svg"
              >
                <ellipse
                  cx="27.5"
                  cy="27"
                  rx="26.9756"
                  ry="27"
                  fill="#1D4ED8"
                  fillOpacity="0.2"
                />
                <path
                  fillRule="evenodd"
                  clipRule="evenodd"
                  d="M27.2525 36.9137C27.3633 36.9715 27.4871 37.0009 27.6109 37C27.7347 36.999 27.8576 36.9686 27.9693 36.9097L31.5372 35.0025C32.549 34.4631 33.3413 33.8601 33.9594 33.1579C35.3034 31.6282 36.0373 29.6758 36.0242 27.6626L35.9819 21.022C35.9779 20.2571 35.4755 19.5746 34.7326 19.3265L28.0951 17.0996C27.6955 16.9642 27.2575 16.9672 26.8649 17.1064L20.2527 19.4128C19.5137 19.6707 19.0204 20.3581 19.0244 21.124L19.0667 27.7597C19.0798 29.7758 19.8389 31.7194 21.205 33.2335C21.8292 33.9258 22.6286 34.52 23.6514 35.0505L27.2525 36.9137ZM26.308 29.1089C26.457 29.2521 26.6503 29.3227 26.8436 29.3207C27.0369 29.3198 27.2292 29.2472 27.3761 29.1021L31.2752 25.2581C31.5682 24.9688 31.5652 24.504 31.2692 24.2187C30.9722 23.9333 30.494 23.9353 30.201 24.2245L26.8325 27.5449L25.4533 26.2191C25.1563 25.9337 24.6791 25.9367 24.3851 26.226C24.0922 26.5152 24.0952 26.98 24.3922 27.2654L26.308 29.1089Z"
                  fill="#1D4ED8"
                />
              </svg>